<svg width="24" height="24" viewBox="0 0 24 24" fill="none" xmlns="http://www.w3.org/2000/svg">
<g clip-path="url(#clip0_1_5)">
<rect width="24" height="24" fill="white"/>
<path d="M-14.5328 12.4234V26.4987H11.9999H38.5327V12.4234V-1.65194H11.9999H-14.5328V12.4234ZM5.7559 12.0078L5.74264 20.0419L5.64535 20.2519C5.5348 20.4932 5.3756 20.6585 5.13681 20.7836C4.9953 20.8551 4.87148 20.8685 4.30544 20.8685H3.64213V12.8121C3.64213 5.12207 3.64655 4.7512 3.72615 4.58141C3.81459 4.3848 4.07107 4.13457 4.27891 4.04074C4.37178 4.00052 4.62826 3.98265 5.09258 3.97818H5.76475L5.7559 12.0078ZM8.89561 9.90768L8.88234 15.8416L8.77621 16.0561C8.64797 16.3242 8.35611 16.5521 8.06425 16.6236L7.84315 16.6772V18.7729V20.8685H7.31249H6.78184V12.8121C6.78184 5.09973 6.78626 4.7512 6.86585 4.58141C6.91008 4.4831 7.00294 4.34458 7.07369 4.27309C7.32133 4.02286 7.48495 3.97818 8.23229 3.97818H8.90445L8.89561 9.90768ZM17.218 11.981C17.218 18.1607 17.2048 20.0285 17.165 20.1715C17.0942 20.4128 16.767 20.7434 16.5282 20.8149C16.4221 20.8462 16.086 20.8685 15.7189 20.8685H15.0954V15.0597C15.0954 11.0873 15.1087 9.1838 15.1441 9.03188C15.1706 8.90677 15.2325 8.74144 15.29 8.66101C15.4182 8.4644 15.7587 8.23651 15.9799 8.20077L16.1567 8.16949V6.07383V3.97818H16.6874H17.218V11.981ZM20.3489 12.0838L20.3356 20.1893L20.203 20.3815C20.1278 20.4887 19.9819 20.6362 19.8757 20.7121L19.6856 20.8462L18.9604 20.8596L18.2351 20.873V12.9417C18.2351 7.46796 18.2484 4.93887 18.2838 4.78695C18.3501 4.47863 18.5314 4.23734 18.8144 4.09436C19.0355 3.98265 19.0842 3.97818 19.7033 3.97818H20.3578L20.3489 12.0838ZM14.0695 12.0793L14.0562 13.8398L13.9236 14.0588C13.8395 14.1928 13.7069 14.3269 13.5742 14.4118L13.3575 14.5458L12.168 14.5592L10.9829 14.5726V17.7184V20.8685H10.4301H9.87732V16.074C9.87732 10.8594 9.86848 11.0203 10.1205 10.7164C10.4389 10.3322 10.4699 10.3277 12.4112 10.3232H14.0828L14.0695 12.0793Z" fill="#F06808"/>
</g>
<defs>
<clipPath id="clip0_1_5">
<rect width="24" height="24" fill="white"/>
</clipPath>
</defs>
</svg>
