<svg width="832" height="206" viewBox="0 0 832 206" fill="none" xmlns="http://www.w3.org/2000/svg">
<path d="M27.5 26.2C22.9 28.8 23.1 26.8 23 102.7V175H28.6C31.6 175 35 174.5 36.2 173.9C41 171.3 41 170.8 41 95.5V25H35.3C32.1 25 28.6 25.6 27.5 26.2Z" fill="#F06808"/>
<path d="M53.9 27.9L51 30.8V102.9V175H55.5H60V156.5V138L62.5 137.4C63.9 137.1 65.9 135.6 67 134.3C68.9 131.8 69 130.1 69 78.4V25H62.9C57.5 25 56.5 25.3 53.9 27.9Z" fill="#F06808"/>
<path d="M136 44C136 62.5 135.9 63 134 63C132.8 63 130.8 64.2 129.5 65.6L127 68.3V121.6V175H133.1C138.5 175 139.5 174.7 142.1 172.1L145 169.2V97.1V25H140.5H136V44Z" fill="#F06808"/>
<path d="M159.8 26.5C158.1 27.5 156.7 29.4 156.1 31.8C155.4 34.2 155 60.1 155 105.2V175H160.5C163.5 175 167 174.5 168.3 173.9C173.7 171.5 173.5 174.2 173.8 96.7L174.1 25H168.3C165.1 25.1 161.3 25.7 159.8 26.5Z" fill="#F06808"/>
<path d="M227 110V175H236.5H246L246.2 137.7L246.5 100.5L252 98.6C255.6 97.4 260.6 96.7 266.5 96.6C277.1 96.5 281.5 98.2 286.4 104.3L289.5 108.2L289.8 141.6L290.1 175H299.1H308V140.2C308 107.9 307.9 105 306 99.4C303.4 91.8 299.2 86.7 292.6 83.2C287.9 80.7 286.5 80.5 276.4 80.5C266.1 80.5 265 80.7 259.5 83.5C255.1 85.8 252.6 87.9 249.8 91.9L246 97.3V71.2V45H236.5H227V110Z" fill="#F06808"/>
<path d="M756 69C756 79.8 755.8 82 754.5 82C753.7 82 751.2 82.7 749 83.6C744.6 85.4 742.7 88.1 741.6 94.2L740.9 98H748.4H755.9L756.2 128.2L756.5 158.5L759.4 163.8C761.8 168.1 763.3 169.5 768.3 172C774 174.8 775 175 786.7 175H799V167V159H789.6C781 159 780.1 158.8 777.8 156.5C776.4 155.1 775 152.6 774.6 150.9C774.3 149.1 774 136.6 774 122.9V98H781C793.3 98 799 94 799 85.5V82H786.5H774V69V56H765H756V69Z" fill="#F06808"/>
<path d="M693.5 80.1C680.5 81.6 670.9 87.3 666.3 96.4C662.8 103 662.4 115.4 665.4 121C670.9 131.4 677.7 134.5 698.2 136C715 137.3 718.5 138.5 720.6 143.6C725.8 156 709.7 165.7 692.5 160.6C687.5 159 681.4 154.1 679.9 150.2C679.1 148.1 678.5 148 670 148H661.1L661.7 151.2C663.9 162.7 673 171.4 687.4 175.5C695.6 177.9 712.3 177.2 720.1 174.2C737.9 167.2 744.5 146.8 734 131.4C729.4 124.8 722.7 122 708.8 120.9C686.9 119 687.3 119.1 684 116C681.5 113.6 681 112.5 681 108.3C681 104.1 681.5 103 684.3 100.2C689.5 95.2 702.4 93.7 709.5 97.2C712.6 98.8 717.1 103.3 718.1 105.7C718.9 107.8 719.6 108 727.5 108C735.7 108 736 107.9 736 105.7C736 103.1 732.9 96 729.9 91.9C724.1 83.8 707.8 78.5 693.5 80.1Z" fill="#F06808"/>
<path d="M346.8 81.9C333.5 86.2 324.8 95.6 322.6 108.2L321.9 112H330.9H339.8L340.9 109C343.8 100.6 350.9 96 360.9 96C368 96 371.5 97.2 375.4 100.8C379.9 105 381 108.8 381 120.2V130.4L377.3 126.7C371.9 121.5 366.3 119.7 355.5 119.6C334.4 119.5 321.1 129.8 320.2 147.2C319.2 164.5 329.7 175.7 347.9 176.8C361.1 177.6 372.2 172.9 378.1 164L381 159.7V167.3V175H390H399.1L398.8 139.2C398.5 104 398.5 103.4 396.1 98.2C392.8 90.9 385.9 84.9 377.6 82.2C369.1 79.4 355.1 79.3 346.8 81.9ZM381 141.3C381 148.5 380.9 148.7 376.9 152.9C368.4 161.7 355.5 164.6 346 159.7C335.6 154.5 335.6 141.1 346.1 135.8C348.9 134.3 352.2 134 365.3 134H381V141.3Z" fill="#F06808"/>
<path d="M595.8 81.9C580.7 86.9 570.6 97.6 566.4 113.3C564.4 120.6 564.5 137.2 566.6 144C573.1 165.8 588.4 177.3 611 177.2C629.8 177.2 643 169.8 649.6 155.6C653.2 148 653.2 148 643.3 148C634.5 148.1 634.5 148.1 632.5 151.2C623.9 164.8 598.9 164.6 588.9 150.8C586.2 147 583 138.6 583 135.3C583 134.3 589.8 134 618.6 134H654.3L653.6 125.6C651.8 103.6 644 90.5 628.4 83.3C620.4 79.7 604.6 79 595.8 81.9ZM618.7 97.5C626.6 100.8 632.3 107.6 634.4 116.1L635 118.8L614.2 119.2C590.6 119.6 588.3 120.2 584.8 127.5L582.9 131.5L583.4 124.5C583.6 120.6 584.8 115.4 585.9 112.8C588.5 106.7 594.5 100.2 599.5 97.9C604.5 95.6 613.7 95.4 618.7 97.5Z" fill="#F06808"/>
<path d="M81.9 84.6L79.5 87.2L79.2 131.1L78.9 175H83.5H88V147V119H98.6C115.6 119 115.9 118.6 116 97.7V82H100.2C84.5 82 84.3 82 81.9 84.6Z" fill="#F06808"/>
<path d="M415 128.5V175H424H433V137.5V100H443.9C459.4 100 464.7 98.8 468.8 94.5C471.4 91.7 472 90.2 472 86.5V82H459.5C442.4 82 439.3 83.3 435 92.5L433.1 96.5V89.2L433 82H424H415V128.5Z" fill="#F06808"/>
<path d="M478 82.4C478 82.8 504.9 160.1 509 171.7L510.2 175H521.9H533.5L542.9 148.2C548 133.5 555.3 112.6 559.1 101.7L565.9 82H556.6H547.2L534.9 118.9C528.1 139.3 522.3 155.7 522 155.4C521.7 155.1 516.1 138.6 509.4 118.7L497.3 82.5L487.7 82.2C482.4 82.1 478 82.1 478 82.4Z" fill="#F06808"/>
</svg>
